<?xml version="1.0" encoding="utf-8"?>
<!-- Generator: Adobe Illustrator 21.0.2, SVG Export Plug-In . SVG Version: 6.00 Build 0)  -->
<svg version="1.1" id="Layer_1" xmlns="http://www.w3.org/2000/svg" xmlns:xlink="http://www.w3.org/1999/xlink" x="0px" y="0px"
	 viewBox="0 0 321.2 94" style="enable-background:new 0 0 321.2 94;" xml:space="preserve">
<style type="text/css">
	.st0{fill:#FFFFFF;}
	.st1{fill:#333333;}
	.st2{fill:none;stroke:#333333;stroke-width:0.7925;stroke-miterlimit:10;}
	.st3{fill:none;stroke:#333333;stroke-width:4.755;stroke-miterlimit:10;}
	.st4{fill:none;stroke:#333333;stroke-width:1.3869;stroke-miterlimit:10;}
	.st5{fill:#999999;}
</style>
<g>
	<g>
		<path class="st0" d="M160.6,91.5c-24.5,0-44.5-20-44.5-44.5s20-44.5,44.5-44.5s44.5,20,44.5,44.5S185.2,91.5,160.6,91.5z"/>
		<path class="st1" d="M160.6,5c23.2,0,42,18.8,42,42s-18.8,42-42,42s-42-18.8-42-42S137.5,5,160.6,5 M160.6,0c-26,0-47,21-47,47
			s21,47,47,47s47-21,47-47S186.6,0,160.6,0L160.6,0z"/>
	</g>
	<path class="st2" d="M121.1,47.1"/>
	<path class="st2" d="M152.8,8.3c2.6-0.5,5.3-0.8,8-0.8c21.9,0,39.6,17.7,39.6,39.6s-17.8,39.7-39.6,39.7
		c-10.3,0-19.7-3.9-26.7-10.4"/>
	<path class="st2" d="M182.9,32.2c2.9,4.3,4.6,9.4,4.6,15c0,14.8-12,26.7-26.7,26.7c-8.9,0-16.8-4.4-21.7-11.1
		c-3.2-4.4-5-9.8-5-15.6"/>
	<path class="st2" d="M160.8,20.4"/>
	<path class="st3" d="M161.7,81.8c-0.3,0-0.7,0-1,0c-19.1,0-34.7-15.5-34.7-34.7c0-0.1,0-0.3,0-0.4"/>
	<path class="st3" d="M160.8,12.4c0.3,0,0.7,0,1,0c18.7,0.5,33.7,15.8,33.7,34.7c0,7-2.1,13.6-5.7,19.1"/>
	<path class="st3" d="M132.9,26.5c2-2.6,4.3-5,6.9-7"/>
	<circle class="st3" cx="160.8" cy="47.1" r="28.5"/>
	<path class="st3" d="M138,47.1c0-0.1,0-0.2,0-0.3c0.1-5.2,1.8-9.9,4.8-13.7"/>
	<path class="st3" d="M180.1,59.2c-4,6.4-11.2,10.7-19.3,10.7c-7.7,0-14.5-3.8-18.6-9.6"/>
	<path class="st3" d="M183.5,47.1"/>
	<path class="st3" d="M160.8,24.3"/>
	<path class="st4" d="M157.4,63.6C149.7,62,144,55.2,144,47.1c0-0.1,0-0.3,0-0.4"/>
	<path class="st4" d="M160.8,64"/>
	<path class="st4" d="M160.8,30.3c0.3,0,0.7,0,1,0c8.7,0.5,15.6,7.5,15.8,16.2"/>
</g>
<g>
	<path class="st1" d="M11.7,37.9v0.8c1.3-1.6,2.6-2.7,4-3.5c1.4-0.7,2.9-1.1,4.7-1.1c2.1,0,4,0.5,5.7,1.6c1.8,1.1,3.1,2.6,4.2,4.7
		s1.5,4.5,1.5,7.3c0,2.1-0.3,4-0.9,5.7s-1.4,3.2-2.4,4.4s-2.2,2.1-3.6,2.7c-1.4,0.6-2.9,1-4.5,1c-1.9,0-3.6-0.4-4.9-1.2
		s-2.6-1.9-3.8-3.4v10.2c0,3-1.1,4.5-3.2,4.5c-1.3,0-2.1-0.4-2.5-1.2c-0.4-0.8-0.6-1.9-0.6-3.4V38c0-1.3,0.3-2.3,0.8-2.9
		c0.6-0.6,1.3-1,2.3-1s1.7,0.3,2.3,1C11.4,35.8,11.7,36.7,11.7,37.9z M25,47.8c0-1.8-0.3-3.3-0.8-4.6s-1.3-2.3-2.3-2.9
		c-1-0.7-2-1-3.2-1c-1.9,0-3.4,0.7-4.7,2.2s-1.9,3.6-1.9,6.5c0,2.7,0.6,4.8,1.9,6.3s2.9,2.2,4.7,2.2c1.1,0,2.2-0.3,3.1-1
		c1-0.7,1.7-1.6,2.3-2.9C24.7,51.2,25,49.6,25,47.8z"/>
	<path class="st1" d="M50.8,31c-0.9,0-1.7-0.3-2.4-0.9s-1-1.4-1-2.5c0-1,0.3-1.7,1-2.4c0.7-0.6,1.5-0.9,2.4-0.9s1.7,0.3,2.3,0.8
		c0.7,0.6,1,1.4,1,2.5c0,1-0.3,1.9-1,2.4S51.7,31,50.8,31z M54.1,38v19.6c0,1.4-0.3,2.4-1,3.1c-0.6,0.7-1.5,1-2.5,1
		s-1.8-0.4-2.4-1.1c-0.6-0.7-0.9-1.7-0.9-3V38.2c0-1.3,0.3-2.3,0.9-3c0.6-0.7,1.4-1,2.4-1s1.8,0.3,2.5,1
		C53.8,35.8,54.1,36.8,54.1,38z"/>
	<path class="st1" d="M95.5,53.3c0,0.8-0.3,1.7-0.8,2.7s-1.3,1.9-2.3,2.7c-1,0.9-2.3,1.6-3.9,2.1s-3.3,0.8-5.3,0.8
		c-4.2,0-7.4-1.2-9.8-3.7c-2.3-2.4-3.5-5.7-3.5-9.8c0-2.8,0.5-5.2,1.6-7.4c1.1-2.1,2.6-3.8,4.7-4.9c2-1.2,4.5-1.7,7.3-1.7
		c1.8,0,3.4,0.3,4.8,0.8c1.5,0.5,2.7,1.2,3.7,2s1.8,1.7,2.3,2.6c0.5,0.9,0.8,1.8,0.8,2.6s-0.3,1.5-0.9,2.1S92.9,45,92,45
		c-0.6,0-1-0.1-1.4-0.4c-0.4-0.3-0.8-0.8-1.3-1.4c-0.8-1.3-1.7-2.2-2.6-2.8s-2-0.9-3.4-0.9c-2,0-3.6,0.8-4.8,2.3
		c-1.2,1.6-1.8,3.7-1.8,6.4c0,1.3,0.2,2.4,0.5,3.5s0.8,2,1.4,2.7c0.6,0.8,1.3,1.3,2.2,1.7c0.8,0.4,1.8,0.6,2.8,0.6
		c1.4,0,2.5-0.3,3.5-0.9c1-0.6,1.8-1.6,2.6-2.9c0.4-0.8,0.9-1.4,1.3-1.8c0.5-0.4,1.1-0.6,1.8-0.6c0.8,0,1.5,0.3,2.1,0.9
		S95.5,52.5,95.5,53.3z"/>
</g>
<g>
	<path class="st5" d="M255.5,52.2c0,0.8-0.2,1.7-0.6,2.7c-0.4,1-1,1.9-1.9,2.8c-0.9,0.9-2,1.7-3.3,2.2c-1.3,0.6-2.9,0.9-4.7,0.9
		c-1.4,0-2.6-0.1-3.7-0.4c-1.1-0.3-2.1-0.7-3-1.2s-1.7-1.3-2.5-2.2c-0.7-0.8-1.3-1.7-1.7-2.7s-0.8-2.1-1.1-3.2
		c-0.2-1.1-0.4-2.3-0.4-3.6c0-2.1,0.3-3.9,0.9-5.6c0.6-1.6,1.5-3,2.6-4.2s2.4-2.1,4-2.7c1.5-0.6,3.1-0.9,4.8-0.9
		c2.1,0,3.9,0.4,5.6,1.2c1.6,0.8,2.9,1.9,3.7,3.1c0.9,1.2,1.3,2.4,1.3,3.5c0,0.6-0.2,1.1-0.6,1.6s-0.9,0.7-1.5,0.7
		c-0.7,0-1.2-0.2-1.5-0.5s-0.7-0.9-1.1-1.6c-0.7-1.3-1.5-2.2-2.4-2.9s-2.1-0.9-3.4-0.9c-2.1,0-3.9,0.8-5.1,2.4
		c-1.3,1.6-1.9,3.9-1.9,6.9c0,2,0.3,3.7,0.8,5c0.6,1.3,1.4,2.3,2.4,3s2.2,1,3.6,1c1.5,0,2.8-0.4,3.8-1.1c1-0.7,1.8-1.8,2.3-3.3
		c0.2-0.7,0.5-1.2,0.8-1.7c0.3-0.4,0.9-0.6,1.6-0.6c0.6,0,1.2,0.2,1.6,0.7C255.3,51,255.5,51.5,255.5,52.2z"/>
	<path class="st5" d="M284.1,38.8h-5.7v18.7c0,1.1-0.2,1.9-0.7,2.4s-1.1,0.8-1.9,0.8s-1.4-0.3-1.9-0.8s-0.7-1.3-0.7-2.4V38.8h-5.7
		c-0.9,0-1.6-0.2-2-0.6c-0.4-0.4-0.7-0.9-0.7-1.6c0-0.7,0.2-1.2,0.7-1.6s1.1-0.6,2-0.6h16.6c0.9,0,1.6,0.2,2,0.6
		c0.4,0.4,0.7,0.9,0.7,1.6c0,0.6-0.2,1.2-0.7,1.6C285.7,38.6,285,38.8,284.1,38.8z"/>
	<path class="st5" d="M312.5,38.6h-10.3v6.6h8.6c0.8,0,1.4,0.2,1.8,0.5c0.4,0.4,0.6,0.8,0.6,1.4s-0.2,1.1-0.6,1.4s-1,0.5-1.8,0.5
		h-8.6v8.5c0,1.1-0.2,1.9-0.7,2.4s-1.1,0.8-1.9,0.8s-1.4-0.3-1.9-0.8s-0.7-1.3-0.7-2.4V37.7c0-0.7,0.1-1.4,0.3-1.8s0.6-0.8,1-1
		c0.5-0.2,1.1-0.3,1.8-0.3h12.3c0.8,0,1.5,0.2,1.9,0.6s0.6,0.9,0.6,1.5s-0.2,1.1-0.6,1.5S313.3,38.6,312.5,38.6z"/>
</g>
</svg>
